/* XPM */
static char * Gradient_1200_xpm[] = {
"9 1200 5 1",
" 	c None",
".	s topShadowColor m ts_color",   
"+	s background    m bg_color",   
"@	s selectColor m sel_color",   
"#	s bottomShadowColor m bs_color", 
"#########",
"#########",
"#########",
"#########",
"#########",
"#########",
"#########",
"#########",
"#########",
"#########",
"#########",
"#########",
"#########",
"#########",
"#########",
"#########",
"#########",
"#########",
"#########",
"#########",
"#########",
"#########",
"#########",
"#########",
"#########",
"#########",
"#########",
"#########",
"#########",
"#########",
"#########",
"#########",
"#########",
"#########",
"#########",
"#########",
"#########",
"#########",
"#########",
"#########",
"#########",
"#########",
"#########",
"#########",
"#########",
"#########",
"#########",
"#########",
"#########",
"#########",
"#########",
"#########",
"#########",
"@########",
"#########",
"#########",
"#########",
"#########",
"#########",
"#########",
"#########",
"#########",
"@########",
"#########",
"#########",
"#########",
"#########",
"#########",
"#########",
"#########",
"#########",
"@####@###",
"#########",
"#########",
"#########",
"@########",
"@########",
"#########",
"#########",
"#########",
"@####@###",
"#########",
"##@######",
"#########",
"#########",
"@########",
"#########",
"#######@#",
"#########",
"@####@###",
"#########",
"#######@#",
"#######@#",
"#########",
"@####@###",
"#########",
"##@####@#",
"#########",
"@#@######",
"#########",
"#########",
"##@####@#",
"#########",
"@####@#@#",
"#########",
"##@####@#",
"#########",
"@########",
"@########",
"#########",
"##@####@#",
"#########",
"@#@##@#@#",
"#########",
"##@####@#",
"#########",
"#########",
"@#@####@#",
"#########",
"@#@####@#",
"#########",
"@#@##@#@#",
"#########",
"#########",
"#########",
"#########",
"@#@##@#@#",
"#########",
"@#@##@#@#",
"#########",
"@#@####@#",
"#########",
"#########",
"@#@####@#",
"#########",
"@#@##@#@#",
"#@#######",
"@#@##@#@#",
"#########",
"@########",
"@####@###",
"######@##",
"@#@####@#",
"#########",
"@#@##@#@#",
"#@####@##",
"@#@##@#@#",
"#########",
"#########",
"@#@##@#@#",
"#@####@##",
"@#@##@#@#",
"#########",
"@#@####@#",
"#@####@##",
"@#@##@###",
"@########",
"###@#####",
"@#@##@#@#",
"#@####@##",
"@#@##@#@#",
"########@",
"@#@####@#",
"#@####@##",
"#@####@##",
"@######@#",
"###@####@",
"@#@##@#@#",
"#@####@##",
"@#@##@#@#",
"###@####@",
"@######@#",
"@#@##@###",
"#@####@##",
"@#@####@#",
"###@####@",
"@#@##@#@#",
"#@####@##",
"@#@##@#@#",
"###@####@",
"########@",
"@#@##@#@#",
"#@#@##@##",
"@#@##@#@#",
"###@####@",
"@#@####@#",
"#@####@#@",
"@#@##@###",
"@######@#",
"###@####@",
"@#@##@#@#",
"#@#@##@#@",
"@#@##@#@#",
"###@####@",
"@######@#",
"#@####@#@",
"#@####@#@",
"@######@#",
"###@####@",
"@#@##@#@#",
"#@#@##@#@",
"@#@##@#@#",
"#@#@####@",
"@######@#",
"@########",
"#@####@#@",
"@#@##@#@#",
"###@##@#@",
"@#@##@#@#",
"#@#@##@#@",
"@#@##@#@#",
"########@",
"########@",
"@#@##@#@#",
"#@#@##@#@",
"@#@##@#@#",
"#@#@##@#@",
"@@@##@#@#",
"#@####@#@",
"@########",
"@########",
"#@#@##@#@",
"@#@##@#@#",
"#@#@##@#@",
"@#@##@#@#",
"#@#@##@#@",
"@@@##@#@#",
"#@######@",
"########@",
"@#@####@#",
"#@#@##@#@",
"@#@##@@@#",
"#@#@##@#@",
"@#@##@#@#",
"#@#@##@#@",
"#@@##@@##",
"#@@##@@##",
"#@#@##@#@",
"@#@##@#@#",
"#@#@##@#@",
"@@@##@@@#",
"#@#@##@#@",
"@#@####@#",
"########@",
"#@###@@#@",
"@@@##@@@#",
"#@#@@#@#@",
"@#@@@##@#",
"#@#@##@#@",
"@@@##@@@#",
"#@####@#@",
"@######@@",
"@######@@",
"#@####@#@",
"@@@##@@@#",
"#@#@##@#@",
"@#@@@##@@",
"#@#@@#@#@",
"@@@##@@@#",
"#@###@@##",
"###@@###@",
"@#@@@##@@",
"#@#@##@#@",
"@@@@@@@@#",
"#@#@##@#@",
"@#@@@##@@",
"#@#@@#@#@",
"#@@##@@@@",
"#@@##@@@@",
"#@#@@#@#@",
"@#@@@##@@",
"#@#@##@#@",
"@@@@@@@@@",
"#@#@##@#@",
"@#@@@##@@",
"###@@###@",
"#@#@@@@#@",
"@@@@@@@@@",
"#@#@##@#@",
"@#@@@##@@",
"#@#@##@#@",
"@@@@@@@@@",
"#@#@@#@#@",
"#@@@@##@@",
"#@@@@##@@",
"#@#@@#@#@",
"@@@@@@@@@",
"#@#@##@#@",
"@#@@@@@@@",
"#@#@##@#@",
"@@@@@@@@@",
"#@#@@@@#@",
"#@#@@@@#@",
"@@@@@@@@@",
"#@#@##@#@",
"@@@@@@@@@",
"#@#@##@#@",
"@@@@@@@@@",
"#@#@@#@#@",
"#@@@@@@@@",
"#@@@@@@@@",
"#@#@@#@#@",
"@@@@@@@@@",
"#@#@##@#@",
"@@@@@@@@@",
"#@#@##@#@",
"@@@@@@@@@",
"#@#@@@@#@",
"#@#@@@@#@",
"@@@@@@@@@",
"@@#@##@#@",
"@@@@@@@@@",
"#@#@##@#@",
"@@@@@@@@@",
"#@#@@@@#@",
"#@@@@@@@@",
"#@@@@@@@@",
"#@#@@#@#@",
"@@@@@@@@@",
"@@#@@@@#@",
"@@@@@@@@@",
"#@#@##@#@",
"@@@@@@@@@",
"@@#@@@@#@",
"@@#@@@@#@",
"@@@@@@@@@",
"#@#@##@#@",
"@@@@@@@@@",
"@@#@@@@#@",
"@@@@@@@@@",
"#@@@##@#@",
"#@@@@@@@@",
"@@@@@@@@@",
"@@#@@@@#@",
"@@@@@@@@@",
"#@#@##@@@",
"@@@@@@@@@",
"@@#@@@@#@",
"@@@@@@@@@",
"#@@@@#@@@",
"#@@@@#@@@",
"@@@@@@@@@",
"@@#@@@@#@",
"@@@@@@@@@",
"#@@@##@@@",
"@@@@@@@@@",
"@@@@@@@#@",
"@@@@@@@#@",
"#@@@@@@@@",
"#@@@##@@@",
"@@@@@@@@@",
"@@#@@@@@@",
"@@@@@@@@@",
"#@@@##@@@",
"@@@@@@@@@",
"@@@@@@@@@",
"@@@@@@@@@",
"@@@@@@@@@",
"#@@@##@@@",
"@@@@@@@@@",
"@@@@@@@@@",
"@@@@@@@@@",
"#@@@##@@@",
"#@@@@@@@@",
"@@@@@@@@@",
"@@@@@@@@@",
"@@@@@@@@@",
"@@@@##@@@",
"@@@@@@@@@",
"@@@@@@@@@",
"@@@@@@@@@",
"#@@@@@@@@",
"#@@@@@@@@",
"@@@@@@@@@",
"@@@@@@@@@",
"@@@@@@@@@",
"@@@@@@@@@",
"@@@@@@@@@",
"@@@@@@@@@",
"@@@@@@@@@",
"#@@@@@@@@",
"#@@@@@@@@",
"@@@@@@@@@",
"@@@@@@@@@",
"@@@@@@@@@",
"@@@@@@@@@",
"@@@@@@@@@",
"@@@@@@@@@",
"@@@@@@@@@",
"@@@@@@@@@",
"@@@@@@@@@",
"@@@@@@@@@",
"@@@@@@@@@",
"@@@@@@@@@",
"@@@@@@@@@",
"@@@@@@@@@",
"@@@@@@@@@",
"@@@@@@@@@",
"@@@@@@@@@",
"@@@@@@@@@",
"@@@@@@@@@",
"@@@@@@@@@",
"@@@@@@@@@",
"@@@@@@@@@",
"@@@@@@@@@",
"@@@@@@@@@",
"@@@@@@@@@",
"@@@@@@@@@",
"@@@@@@@@@",
"@@@@@@@@@",
"@@@@@@@@@",
"@@@@@@@@@",
"@@@@@@@@@",
"@@@@@@@@@",
"@@@@@@@@@",
"@@@@@@@@@",
"@@@@@@@@@",
"@@@@@@@@@",
"@@@@@@@@@",
"@@@@@@@@@",
"@@@@@@@@@",
"@@@@@@@@@",
"@@@@@@@@@",
"@@@@@@@@@",
"@@@@@@@@@",
"@@@@@@@@@",
"@@@@@@@@@",
"@@@@@@@@@",
"@@@@@@@@@",
"@@@@@@@@@",
"@@@@@@@@@",
"@@@@@@@@@",
"@@@@@@@@@",
"@@@@@@@@@",
"@@@@@@@@@",
"@@@@@@@@@",
"@@@@@@@@@",
"@@@@@@@@@",
"@@@@@@@@@",
"@@@@@@@@@",
"@@@@@@@@@",
"@@@@@@@@@",
"@@@@@@@@@",
"@@@@@@@@@",
"@@@@@@@@@",
"@@@@@@@@@",
"@@@@@@@@@",
"@@@@@@@@@",
"@@@@@@@@@",
"@@@@@@@@@",
"@@@@@@@@@",
"@@@@@@@@@",
"@@@@@@@@@",
"@@@@@@@@@",
"@@@@@@@@@",
"@@@@@@@@@",
"@@@@@@@@+",
"@@@@@@@@@",
"@@@@@@@@@",
"@@@@@@@@@",
"@@@@@@@@@",
"@@@@@@@@+",
"@@@@@@@@@",
"@@@@@@@@@",
"@@@@@@@@@",
"@@@+@@@@+",
"@@@@@@@@@",
"@@@@@@@@@",
"@@@@@@@@@",
"@@@@@@@@@",
"@@@+@@@@+",
"@@@@@@@@@",
"@@@@@@+@@",
"@@@@@@@@@",
"@@@@@@@@+",
"@@@@@@@@@",
"@@@@@@@@@",
"@+@@@@@@@",
"@@@@@@@@@",
"@@@+@@@@+",
"@@@@@@@@@",
"@+@@@@+@@",
"@@@@@@@@@",
"@@@@@@@@+",
"@@@@@@@@+",
"@@@@@@@@@",
"@+@@@@+@@",
"@@@@@@@@@",
"@@@+@@+@+",
"@@@@@@@@@",
"@+@@@@+@@",
"@@@@@@@@@",
"@@@@@@@@@",
"@+@@@@@@+",
"@@@@@@@@@",
"@+@@@@+@@",
"@@@@@@@@@",
"@+@+@@+@+",
"@@@@@@@@@",
"@@@@@@@@@",
"@@@@@@@@@",
"@@@@@@@@@",
"@+@+@@+@+",
"@@@@@@@@@",
"@+@@@@+@@",
"@@@@@@@@@",
"@+@@@@+@+",
"@@@@@@@@@",
"@@@@@@@@@",
"@+@@@@+@@",
"@@@@@@@@@",
"@+@+@@+@+",
"@@@@@@@@@",
"@+@@@@+@+",
"@@@@@@@@@",
"@@@@@@@@+",
"@@@@@@@@+",
"@@@@@@@@@",
"@+@+@@+@+",
"@@@@@@@@@",
"@+@+@@+@+",
"@@@@@@@@@",
"@+@@@@+@+",
"@@@@@@@@@",
"@@@@@@@@@",
"@+@@@@+@+",
"@@@@@+@@@",
"@+@+@@+@+",
"@@@@@@@@@",
"@+@+@@+@+",
"+@@@@@@@@",
"@+@@@@@@+",
"@@@@@@@@+",
"@@@@@@@@@",
"@+@+@@+@+",
"+@@@@+@@@",
"@+@+@@+@+",
"@@@@@@@@@",
"@+@@@@+@+",
"+@@@@+@@@",
"+@@@@+@@@",
"@+@@@@+@+",
"@@@@@@@@@",
"@+@+@@+@+",
"+@@@@+@@@",
"@+@+@@+@+",
"@@@@@@@+@",
"@@@@@@+@+",
"@+@@@@@@+",
"+@@@@+@@@",
"@+@+@@+@+",
"@@+@@@@@@",
"@+@+@@+@+",
"+@@@@+@@@",
"@+@@@@@@+",
"@@+@@@@+@",
"@@+@@@@+@",
"@+@@@@@@+",
"+@@@@+@@@",
"@+@+@@+@+",
"@@+@@@@+@",
"@+@+@@+@+",
"+@@@@+@@@",
"@+@@@@@@+",
"@@@+@@+@+",
"@@+@@@@+@",
"@+@@@@+@+",
"+@@@@+@@@",
"@+@+@@+@+",
"@@+@@@@+@",
"@+@+@@+@+",
"+@@@@@@@@",
"+@@@@@@@@",
"@+@+@@+@+",
"@@+@@@@+@",
"@+@+@@+@+",
"+@+@@+@@@",
"@+@+@@+@+",
"@@+@@@@+@",
"@@@@@@+@+",
"@+@@@@@@+",
"+@+@@+@+@",
"@+@+@@+@+",
"@@+@@@@+@",
"@+@+@@+@+",
"+@+@@+@+@",
"@+@@@@+@+",
"@@@@@@@@@",
"@@@@@@@@@",
"@+@@@@+@+",
"+@+@@+@+@",
"@+@+@@+@+",
"@@+@@+@+@",
"@+@+@@+@+",
"+@+@@+@+@",
"@@@@@@@@+",
"@@@@@@+@+",
"+@+@@@@+@",
"@+@+@@+@+",
"+@+@@+@+@",
"@+@+@@+@+",
"+@+@@+@+@",
"@+@+@@+@+",
"+@@@@@@@@",
"+@@@@@@@@",
"@+@+@@+@+",
"+@+@@+@+@",
"@+@+@@+@+",
"+@+@@+@+@",
"@+@+@@+@+",
"+@+@@+@+@",
"@@@@@@@@+",
"@@@@@@@@+",
"+@+@++@+@",
"@+@@+++@+",
"+@+@@+@+@",
"@+@+@@+@+",
"+@+@@+@+@",
"++@+@@+@+",
"+@@@@@@@@",
"@@@@@@@@@",
"@+@+@@+@+",
"+@+@@+@+@",
"++@++++@+",
"+@+@@+@+@",
"@+@+@@+@+",
"+@+@@@@+@",
"++@@++@@+",
"++@@++@@+",
"+@+@@@@+@",
"@+@+@@+@+",
"+@+@@+@+@",
"++@++++@+",
"+@+@@+@+@",
"@+@+@@+++",
"@@@@@@@+@",
"+@@@++@@@",
"++@@+++@+",
"+@+@@+@+@",
"@+++@@+@+",
"+@+@@+@+@",
"++@@+++@+",
"+@+@++@+@",
"@@++@@++@",
"@@++@@++@",
"+@+@++@+@",
"++@@+++@+",
"+@+@@+@+@",
"@+++@@+++",
"+@+@@@@+@",
"++@@+++++",
"+@@@++@+@",
"@@++@@@+@",
"@+++@@+++",
"+@+@@+@+@",
"+++++++@+",
"+@+@@+@+@",
"@+++@@+++",
"+@+@@@@+@",
"++++++++@",
"++++++++@",
"+@+@@@@+@",
"@+++@@+++",
"+@+@@+@+@",
"+++++++++",
"+@+@@+@+@",
"@+++@@+++",
"@@++@@@+@",
"+@++++@+@",
"+++++++++",
"+@+@@+@+@",
"@++++++++",
"+@+@@+@+@",
"+++++++++",
"+@+@++@+@",
"++++@@++@",
"++++@@++@",
"+@+@++@+@",
"+++++++++",
"+@+@@+@+@",
"+++++++++",
"+@+@@+@+@",
"+++++++++",
"+@++++@+@",
"+@++@@@+@",
"++++@@+++",
"+@+@@+@+@",
"+++++++++",
"+@+@@+@+@",
"+++++++++",
"+@+@++@+@",
"++++++++@",
"++++++++@",
"+@+@++@+@",
"+++++++++",
"+@+@@+@+@",
"+++++++++",
"+@++++@+@",
"+++++++++",
"+@+@++@+@",
"+@++++@+@",
"+++++++++",
"+@+@@+@++",
"+++++++++",
"+@+@@+@+@",
"+++++++++",
"+@++++@++",
"+++++++++",
"++++++++@",
"+@+@++@+@",
"+++++++++",
"+@++++@++",
"+++++++++",
"+@+@@+@+@",
"+++++++++",
"+@++++@++",
"+@++++@++",
"+++++++++",
"+@+@@+++@",
"+++++++++",
"+@++++@++",
"+++++++++",
"+++@++@+@",
"++++++++@",
"+@+++++++",
"+@++++@++",
"+++++++++",
"+++@@+++@",
"+++++++++",
"+@++++@++",
"+++++++++",
"+++@++++@",
"+++@++++@",
"+++++++++",
"+@+++++++",
"+++++++++",
"+++@@+++@",
"+++++++++",
"++++++@++",
"+++++++++",
"++++++++@",
"+++@@+++@",
"+++++++++",
"+@+++++++",
"+++++++++",
"+++@@+++@",
"+++++++++",
"++++++@++",
"++++++@++",
"+++++++++",
"+++@@+++@",
"+++++++++",
"+++++++++",
"+++++++++",
"++++++++@",
"++++++++@",
"+++++++++",
"+++++++++",
"+++++++++",
"+++@@+++@",
"+++++++++",
"+++++++++",
"+++++++++",
"++++++++@",
"++++++++@",
"+++++++++",
"+++++++++",
"+++++++++",
"+++@@++++",
"+++++++++",
"+++++++++",
"+++++++++",
"+++++++++",
"+++++++++",
"+++++++++",
"+++++++++",
"+++++++++",
"+++++++++",
"+++++++++",
"+++++++++",
"+++++++++",
"+++++++++",
"+++++++++",
"+++++++++",
"+++++++++",
"+++++++++",
"+++++++++",
"+++++++++",
"+++++++++",
"+++++++++",
"+++++++++",
"+++++++++",
"+++++++++",
"+++++++++",
"+++++++++",
"+++++++++",
"+++++++++",
"+++++++++",
"+++++++++",
"+++++++++",
"+++++++++",
"+++++++++",
"+++++++++",
"+++++++++",
"+++++++++",
"+++++++++",
"+++++++++",
"+++++++++",
"+++++++++",
"+++++++++",
"+++++++++",
"+++++++++",
"+++++++++",
"+++++++++",
"+++++++++",
"+++++++++",
"+++++++++",
"+++++++++",
"+++++++++",
"+++++++++",
"+++++++++",
"+++++++++",
"+++++++++",
"+++++++++",
"+++++++++",
"+++++++++",
"+++++++++",
"+++++++++",
"+++++++++",
"+++++++++",
"+++++++++",
"+++++++++",
"+++++++++",
"+++++++++",
"+++++++++",
"+++++++++",
"+++++++++",
"+++++++++",
"+++++++++",
"+++++++++",
"++++++++.",
"+++++++++",
"+++++++++",
"+++++++++",
"+++++++++",
"+++.+++++",
"+++++++++",
"+++++++++",
"+++++++++",
"+++..+++.",
"+++++++++",
"+++++++++",
"+++++++++",
"+++++++++",
"+++..+++.",
"+++++++++",
"+++++++++",
"+++++++++",
"+++.++++.",
"+++++++++",
"+++++++++",
"+.+++++++",
"+++++++++",
"+++..+++.",
"+++++++++",
"++++++.++",
"+++++++++",
"++++++++.",
"++++++++.",
"+++++++++",
"+.++++.++",
"+++++++++",
"+++..+++.",
"+++++++++",
"+.++++.++",
"+++++++++",
"+++++++++",
"+.+.++++.",
"+++++++++",
"+.++++.++",
"+++++++++",
"+++.++.+.",
"+++++++++",
"+.+++++++",
"+.+++++++",
"+++++++++",
"+.+.++.+.",
"+++++++++",
"+.++++.++",
"+++++++++",
"+.+.++.+.",
"+++++++++",
"+++++++++",
"+.++++.++",
"+++++++++",
"+.+.++.+.",
"+++++++++",
"+.++++.+.",
"+++++++++",
"+.++++++.",
"+.++++++.",
"+++++++++",
"+.+.++.++",
"+++++++++",
"+.+.++.+.",
"+++++++++",
"+.+.++.+.",
"+++++++++",
"+++++++++",
"+.+.++.+.",
"+++++++++",
"+.+.++.+.",
"+++++++++",
"+.+.++.+.",
".++++++++",
"+.++++++.",
"+.++++++.",
"+++++++++",
"+.+..+.+.",
"++++..+++",
"+.+..+.+.",
"+++++++++",
"+.+.++.+.",
".+++..+++",
".+++..+++",
"+.+.++.+.",
"+++++++++",
"+.+..+.+.",
".+++..+++",
"+.+..+.+.",
"+++++++++",
"+.++++++.",
"+.++..++.",
".+++..+++",
"+.+.++.+.",
"++.++++++",
"+.+.++.+.",
".+++..+++",
"+.++.+.+.",
"++++++..+",
"++++++..+",
"+.++.+.+.",
".+++..+++",
"+.+.++.+.",
"++.++++.+",
"+.+.++.+.",
".+++..+++",
"+.++..++.",
"+...++.+.",
"++.++++.+",
"+.+..+.+.",
".+++..+++",
"+.+..+.+.",
"++.++++.+",
"+.+.++.+.",
".+++..+++",
".+++..+++",
"+.+.++.+.",
"++.++++.+",
"+.+..+.+.",
".+.+..+++",
"+.+..+.+.",
"++.++++.+",
"+...++.+.",
"+.++...+.",
".+++..+.+",
"+.+.++.+.",
"++.++++.+",
"+.+.++.+.",
".+.+..+.+",
"+.+..+.+.",
"++..+++.+",
"++..+++.+",
"+.+..+.+.",
".+.+..+.+",
"+.+.++.+.",
"++.++++.+",
"+.+.++.+.",
".+.+..+.+",
"+.+....+.",
"+.+.++.+.",
".+.++++.+",
"+.+..+.+.",
".+.++.+.+",
"+.+.++.+.",
"++.++.+.+",
"+.+.++.+.",
".+.++.+.+",
".+.++.+.+",
"+.+.++.+.",
".+.++.+.+",
"+.+.++.+.",
".+.++.+.+",
"+.+.++.+.",
".+.++.+.+",
"+.+.++.+.",
"+.+.++.+.",
".+.++.+.+",
"+.+.++.+.",
".+.++.+.+",
"+.+.++.+.",
".+.++.+.+",
"+.+.++.+.",
".+.++.+.+",
".+.++.+.+",
"..+.++.+.",
".+.++.+.+",
"+.+.++.+.",
".+.++.+.+",
"+.+....+.",
".+.+..+.+",
"+.+.++.+.",
"+.+.++.+.",
".+.+..+.+",
"..+....+.",
".+.++.+.+",
"+.+.++.+.",
".+.++.+.+",
"..+....+.",
".+.+..+.+",
".+.++++.+",
"+.+.++.+.",
".+.+..+.+",
"..+....+.",
".+.+..+.+",
"+...++.+.",
".+..+.+.+",
"..++...+.",
"..++..++.",
".+.++.+.+",
"+.+.++...",
".+.+..+.+",
"..+....+.",
".+.+..+.+",
"+...++...",
".+..++..+",
".+++..+.+",
"..+....+.",
".+.++.+.+",
"+...++...",
".+.++.+.+",
".......+.",
".+.+..+.+",
"+...++...",
"+...++...",
".+.+..+.+",
"..+......",
".+.++.+.+",
"+...++...",
".+.++.+.+",
".........",
".+......+",
".+..++..+",
"+...++...",
".+.+..+.+",
".........",
".+.+..+.+",
"+...++...",
".+..+.+.+",
".........",
".........",
".+..+.+.+",
"....++...",
".+.+..+.+",
".........",
".+.+..+.+",
"+........",
".+......+",
".+......+",
".........",
".+.+..+.+",
".........",
".+.+..+.+",
".........",
".+.+..+.+",
"+........",
"+........",
".+.+..+.+",
".........",
".+.+..+.+",
".........",
".+.+..+.+",
".........",
".+......+",
".+......+",
".........",
".+.+..+.+",
".........",
".+.+..+..",
".........",
".+.+..+.+",
".........",
".........",
".+....+.+",
".........",
".+.+..+.+",
".........",
".+....+..",
".........",
".+......+",
".+......+",
".........",
".+....+..",
".........",
".+.+..+.+",
".........",
".+....+..",
".........",
".........",
"...+..+.+",
".........",
".+....+..",
".........",
".+.++...+",
".........",
".+....+..",
".+....+..",
".........",
"...++...+",
".........",
".+....+..",
".........",
"...+....+",
".........",
".........",
"......+..",
".........",
"...++...+",
".........",
".+.......",
".........",
"........+",
"........+",
".........",
"......+..",
".........",
"...++...+",
".........",
".+.......",
".........",
".........",
"...+....+",
".........",
".........",
".........",
"...++....",
".........",
".........",
".........",
".........",
"...++...+",
".........",
".........",
".........",
"...+.....",
".........",
".........",
".........",
".........",
"........+",
".........",
".........",
".........",
".........",
".........",
".........",
".........",
".........",
".........",
".........",
".........",
".........",
".........",
".........",
".........",
".........",
".........",
".........",
".........",
".........",
".........",
".........",
".........",
".........",
".........",
".........",
".........",
".........",
".........",
".........",
".........",
".........",
".........",
".........",
".........",
".........",
".........",
".........",
".........",
"........."};
